<?xml version="1.0" encoding="UTF-8"?>
<svg id="Camada_2" data-name="Camada 2" xmlns="http://www.w3.org/2000/svg" viewBox="0 0 864.2 138.44">
  <defs>
    <style>
      .cls-1 {
        fill: #fff;
      }
    </style>
  </defs>
  <g id="_1" data-name="1">
    <g>
      <polygon class="cls-1" points="46.19 0 115.4 0 69.21 138.42 0 138.42 46.19 0"/>
      <polygon class="cls-1" points="140.56 0 209.77 0 163.58 138.42 94.37 138.42 140.56 0"/>
      <polygon class="cls-1" points="232.62 0 301.82 0 255.65 138.42 186.44 138.42 232.62 0"/>
      <path class="cls-1" d="M393.52,2.25l-17.15,51.87-12.59-51.87h-16.35l-24.53,74.3h14.55l17.39-52.77,13.1,52.77h15.6L408.05,2.25h-14.53Z"/>
      <path class="cls-1" d="M463.51,76.57l-1.92-74.3h-17.64s-51.16,74.28-51.16,74.28h16.31s10.19-15.27,10.19-15.27h27.5l-.2,15.28h16.92ZM446.68,48.48h-18.95l19.28-29.23-.32,29.23Z"/>
      <path class="cls-1" d="M552.46,27.02c1.32-4.64,1.13-9.27-.56-13.86-3.1-8.2-10.93-12.31-23.49-12.31-9.38,0-18.14,3.06-26.24,9.18-9.29,7.03-16.09,17.02-20.36,29.99-3.97,12-4.03,21.44-.18,28.32,3.89,6.86,11.21,10.29,21.96,10.29,8.68,0,16.63-2.53,23.86-7.61,7.23-5.08,12.85-11.65,16.86-19.76h-15.44c-2.31,3.83-4.57,6.7-6.78,8.62-4.07,3.56-8.84,5.34-14.3,5.34s-9.05-2.08-11.12-6.22c-2.09-4.16-1.74-10.39,1.01-18.74,2.74-8.33,6.48-14.77,11.27-19.32,4.79-4.55,10.03-6.84,15.69-6.84s9.24,1.61,10.99,4.84c1,1.81,1.41,4.49,1.23,8.06h15.6Z"/>
      <path class="cls-1" d="M571.2,2.27l-24.52,74.3h15.5l24.52-74.3h-15.5Z"/>
      <path class="cls-1" d="M656.62,8.68c-3.75-5.78-10.96-8.68-21.63-8.68s-19.77,2.9-27.3,8.67c-9.82,6.82-16.96,17.04-21.46,30.65-4.42,13.35-4.03,23.57,1.19,30.65,3.75,5.78,10.96,8.66,21.63,8.66s19.77-2.88,27.3-8.66c9.88-7.08,17.02-17.3,21.46-30.65,4.49-13.6,4.1-23.81-1.19-30.63ZM642.2,39.31c-2.77,8.37-6.72,14.83-11.86,19.36s-10.8,6.81-16.98,6.81-10.36-2.27-12.53-6.81c-2.17-4.54-1.87-10.99.89-19.36,2.77-8.36,6.73-14.81,11.9-19.35,5.18-4.54,10.86-6.81,17.04-6.81s10.32,2.28,12.44,6.84c2.12,4.55,1.82,10.99-.91,19.32Z"/>
      <path class="cls-1" d="M727.77,2.27l-17.14,51.87-12.59-51.87h-16.36l-24.52,74.3h14.53l17.4-52.77,13.09,52.78h15.6l24.52-74.31h-14.53Z"/>
      <path class="cls-1" d="M797.76,76.58l-1.92-74.3h-17.62l-51.17,74.3h16.31l10.2-15.28h27.5l-.22,15.28h16.92ZM780.93,48.51h-18.94l19.26-29.24-.32,29.24Z"/>
      <path class="cls-1" d="M827.22,63.22l20.13-60.93h-15.6l-24.52,74.3h52.58l4.39-13.36h-36.97Z"/>
      <path class="cls-1" d="M316.81,101.27l-11.94,36.18h3.44l11.94-36.18h-3.44Z"/>
      <path class="cls-1" d="M354.53,101.27l-10.45,31.62h-.1l-10.55-31.62h-3.88l-11.96,36.18h3.44l10.39-31.56h.1l10.51,31.56h4l11.94-36.18h-3.44Z"/>
      <path class="cls-1" d="M390.75,107.19c-.37-1.26-1-2.33-1.9-3.19-.63-.6-1.35-1.08-2.12-1.46-.79-.37-1.62-.64-2.5-.82-.89-.19-1.81-.31-2.77-.35-.95-.06-1.93-.09-2.94-.09h-12.43l-11.94,36.18h12.43c1.2,0,2.42-.06,3.63-.18,1.2-.12,2.42-.34,3.63-.64,1.21-.32,2.42-.78,3.59-1.33,1.19-.57,2.34-1.33,3.5-2.27,1.11-.91,2.14-1.9,3.07-2.99.94-1.1,1.77-2.22,2.5-3.43.72-1.19,1.36-2.4,1.9-3.64.56-1.23,1.04-2.46,1.45-3.66.37-1.2.7-2.52,1.01-3.95.31-1.42.45-2.82.44-4.22,0-1.39-.19-2.71-.54-3.97ZM387.46,115.32c-.28,1.36-.63,2.69-1.05,4-.41,1.24-.92,2.53-1.54,3.86-.61,1.35-1.35,2.62-2.21,3.85-.88,1.21-1.87,2.36-3,3.4-1.13,1.04-2.4,1.86-3.82,2.46-1.64.73-3.18,1.2-4.61,1.38-1.43.19-2.93.28-4.48.28h-8.23l10.06-30.36h8.23c1.52.01,2.99.09,4.39.26,1.42.16,2.58.53,3.48,1.1,1.04.67,1.8,1.52,2.28,2.55.48,1.01.76,2.14.82,3.37.06,1.21-.06,2.5-.32,3.86Z"/>
      <path class="cls-1" d="M427.35,101.29l-7.11,21.55c-.72,2.15-1.54,4.01-2.42,5.58-.89,1.58-1.95,2.9-3.15,3.95-1.2,1.05-2.56,1.84-4.08,2.36-1.52.53-3.26.78-5.21.78-3.75,0-6.12-.98-7.16-2.96-1.02-1.98-.79-5.21.7-9.7l7.11-21.55h-3.44l-7.42,22.56c-1.55,4.63-1.58,8.21-.1,10.76,1.49,2.55,4.61,3.81,9.35,3.82,4.71,0,8.65-1.26,11.83-3.75,3.16-2.5,5.53-6.1,7.1-10.83l7.42-22.56h-3.43ZM422.62,91.48l-7.87,6.98h2.58l9.19-6.98h-3.89Z"/>
      <path class="cls-1" d="M459.85,106.97c-.09-1.32-.48-2.46-1.17-3.45-.69-.98-1.7-1.76-3.03-2.33-1.33-.57-3.03-.86-5.08-.86s-3.89.28-5.62.81c-1.73.54-3.25,1.26-4.57,2.17-1.32.91-2.43,1.95-3.35,3.12-.91,1.17-1.57,2.37-1.98,3.62-.59,1.77-.75,3.23-.5,4.39.25,1.16.78,2.11,1.57,2.84.79.75,1.79,1.33,2.97,1.76,1.2.44,2.43.82,3.72,1.14,1.27.32,2.5.64,3.72.98,1.2.34,2.24.78,3.1,1.33.86.54,1.46,1.26,1.81,2.14.35.86.29,2.01-.18,3.41-.31,1.01-.81,1.96-1.46,2.87-.66.91-1.48,1.7-2.44,2.39-.98.69-2.12,1.23-3.42,1.62-1.32.41-2.77.6-4.39.6-1.38,0-2.62-.15-3.73-.47-1.1-.32-2.01-.83-2.69-1.54-.7-.7-1.14-1.61-1.35-2.74-.2-1.13-.12-2.49.28-4.1h-3.34c-.63,1.98-.86,3.7-.7,5.15.16,1.46.67,2.68,1.52,3.67.83.98,1.99,1.73,3.45,2.21,1.45.48,3.12.73,5.01.73,4.22,0,7.79-.92,10.73-2.77,2.94-1.84,4.96-4.44,6.06-7.79.57-1.74.75-3.19.53-4.35-.22-1.16-.69-2.11-1.41-2.84-.73-.75-1.65-1.33-2.78-1.76-1.13-.44-2.31-.82-3.56-1.14-1.24-.31-2.46-.61-3.67-.89-1.21-.29-2.28-.66-3.21-1.11s-1.64-1.02-2.15-1.73c-.5-.7-.66-1.64-.45-2.82.15-.94.51-1.87,1.08-2.81.59-.94,1.36-1.79,2.33-2.56.97-.78,2.12-1.39,3.47-1.89,1.36-.48,2.91-.72,4.65-.72,1.16,0,2.22.15,3.21.44,1,.31,1.79.78,2.39,1.42.6.63.98,1.45,1.16,2.46.16,1,.01,2.2-.44,3.57h3.28c.51-1.48.72-2.87.64-4.17Z"/>
      <path class="cls-1" d="M466.57,101.29l-.95,2.91h11.52l-11.01,33.26h3.44s10.99-33.26,10.99-33.26h11.52l.94-2.91h-26.45Z"/>
      <path class="cls-1" d="M520.57,103.53c-1.62-1.49-4.45-2.24-8.45-2.24h-14.24l-11.94,36.12,3.42.06,5.46-16.44h10.8c.83,0,1.64.04,2.4.15s1.41.31,1.93.61c.51.29.91.73,1.17,1.33.28.59.35,1.36.23,2.33-.07.67-.28,1.57-.61,2.69-.34,1.13-.64,2.27-.95,3.44-.31,1.17-.56,2.28-.75,3.34-.19,1.05-.2,1.9-.04,2.55l3.79-.06.09-.29c-.18-.18-.31-.41-.37-.73-.07-.32-.06-.76,0-1.33.07-.57.2-1.3.44-2.21.22-.91.54-2.05.98-3.42.28-.94.54-1.9.79-2.91.25-1,.37-1.96.35-2.85,0-.91-.19-1.71-.57-2.42-.37-.7-1.04-1.24-2.01-1.61,2.4-.94,4.29-2.08,5.68-3.43,1.38-1.33,2.44-3.15,3.18-5.42,1.1-3.35.83-5.77-.79-7.26ZM517.86,110.93c-.42,1.27-1.01,2.36-1.77,3.26s-1.64,1.65-2.63,2.24c-1,.59-2.09,1.01-3.28,1.27-1.2.28-2.43.41-3.7.41h-10.71l4.61-13.92h10.9c1.14,0,2.21.1,3.22.31,1,.19,1.83.54,2.47,1.05.64.5,1.07,1.19,1.27,2.05.2.88.07,1.99-.38,3.32Z"/>
      <path class="cls-1" d="M532.82,101.29l-11.94,36.18h3.42l11.94-36.18h-3.42Z"/>
      <path class="cls-1" d="M560.48,101.29h-3.88l-26.24,36.18h3.54l8.04-11.36h16.57l.44,11.36h3.53l-1.99-36.18ZM544.04,123.2l13.42-19,.82,19h-14.24Z"/>
      <path class="cls-1" d="M622.19,101.29l-22.26,31.91h-.09l-1.39-31.91h-5.24l-11.94,36.18h3.43l10.63-32.26h.1l1.35,32.26h3.22l22.56-32.26h.1l-10.64,32.26h3.44l11.94-36.18h-5.2Z"/>
      <path class="cls-1" d="M658.65,104.2l.95-2.91h-24.18l-11.96,36.18h24.69l.95-2.91h-21.25l4.76-14.37h18.72l.95-2.91h-18.74l4.36-13.07h20.74Z"/>
      <path class="cls-1" d="M690.28,103.25c-1.9-1.93-4.71-2.91-8.45-2.91-2.43,0-4.79.35-7.07,1.04-2.28.69-4.44,1.79-6.44,3.31-2.02,1.52-3.85,3.5-5.49,5.91-1.65,2.4-3.04,5.34-4.19,8.78-.88,2.59-1.41,5.02-1.58,7.32-.19,2.3.07,4.3.76,6.05.69,1.74,1.86,3.13,3.5,4.16,1.65,1.01,3.86,1.52,6.66,1.52,2.43,0,4.65-.34,6.69-1.02,2.03-.69,3.86-1.61,5.5-2.78,1.62-1.19,3.1-2.55,4.39-4.1,1.29-1.57,2.43-3.21,3.4-4.95h-3.57c-.82,1.43-1.74,2.75-2.8,3.97-1.05,1.2-2.21,2.25-3.47,3.13-1.26.89-2.62,1.6-4.05,2.09-1.43.5-2.93.75-4.48.75-2.49,0-4.41-.47-5.75-1.41-1.33-.94-2.24-2.17-2.72-3.69-.47-1.52-.6-3.26-.38-5.2.23-1.95.69-3.92,1.36-5.94.67-2.14,1.6-4.17,2.72-6.1,1.14-1.92,2.46-3.62,3.95-5.09,1.51-1.48,3.19-2.65,5.08-3.51,1.89-.88,3.92-1.32,6.12-1.32,3.09,0,5.39.66,6.86,1.96,1.48,1.32,2.08,3.5,1.79,6.59h3.53c.64-3.75.01-6.6-1.87-8.55Z"/>
      <path class="cls-1" d="M717.56,101.3h-3.89l-26.23,36.17h3.54l8.04-11.36h16.55l.45,11.36h3.53l-1.99-36.17ZM701.13,123.2l13.42-18.98.82,18.98h-14.24ZM720.62,91.5h-3.38l-8.04,6.98h3.28l5.85-5.12,2.43,5.12h3.28l-3.42-6.98Z"/>
      <path class="cls-1" d="M761.3,101.3l-10.47,31.6h-.1l-10.54-31.6h-3.89l-11.94,36.17h3.43l10.41-31.54h.1l10.49,31.54h4l11.94-36.17h-3.43Z"/>
      <path class="cls-1" d="M774.06,101.3l-11.94,36.18h3.44l11.94-36.18h-3.44Z"/>
      <path class="cls-1" d="M810.9,103.26c-1.9-1.95-4.71-2.91-8.45-2.91-2.43,0-4.79.34-7.07,1.02-2.28.69-4.44,1.79-6.44,3.32-2.02,1.52-3.85,3.48-5.49,5.9-1.64,2.42-3.04,5.34-4.19,8.8-.86,2.58-1.39,5.01-1.58,7.3-.19,2.3.07,4.32.76,6.06.69,1.74,1.86,3.12,3.5,4.14,1.65,1.02,3.88,1.54,6.66,1.54,2.43,0,4.65-.35,6.69-1.04,2.03-.67,3.86-1.61,5.5-2.78,1.64-1.17,3.1-2.53,4.39-4.1,1.29-1.55,2.43-3.21,3.41-4.95h-3.59c-.81,1.43-1.74,2.77-2.8,3.97-1.04,1.21-2.2,2.25-3.47,3.15-1.26.88-2.62,1.58-4.05,2.08-1.43.51-2.93.76-4.48.76-2.49,0-4.41-.47-5.74-1.41-1.35-.94-2.25-2.18-2.74-3.7-.47-1.52-.6-3.25-.37-5.2.22-1.95.67-3.92,1.35-5.93.69-2.15,1.6-4.19,2.72-6.1,1.14-1.93,2.46-3.63,3.95-5.11,1.51-1.46,3.21-2.63,5.08-3.51,1.89-.86,3.92-1.3,6.12-1.3,3.1,0,5.39.64,6.86,1.96,1.48,1.3,2.08,3.5,1.79,6.57h3.53c.64-3.75.01-6.59-1.87-8.53Z"/>
      <path class="cls-1" d="M838.19,101.3h-3.88l-26.24,36.18h3.54l8.04-11.36h16.57l.44,11.36h3.53l-1.99-36.18ZM821.75,123.21l13.42-19,.82,19h-14.24Z"/>
    </g>
  </g>
</svg>