<?xml version="1.0" encoding="UTF-8"?>
<svg id="Camada_2" data-name="Camada 2" xmlns="http://www.w3.org/2000/svg" viewBox="0 0 757.82 121.4">
  <defs>
    <style>
      .cls-1 {
        fill: #1c1f21;
      }
    </style>
  </defs>
  <g id="_1" data-name="1">
    <g>
      <polygon class="cls-1" points="40.51 0 101.2 0 60.69 121.38 0 121.38 40.51 0"/>
      <polygon class="cls-1" points="123.26 0 183.95 0 143.44 121.38 82.75 121.38 123.26 0"/>
      <polygon class="cls-1" points="203.99 0 264.67 0 224.18 121.38 163.49 121.38 203.99 0"/>
      <path class="cls-1" d="M345.08,1.98l-15.04,45.49-11.04-45.49h-14.34l-21.51,65.15h12.76l15.25-46.27,11.49,46.27h13.68L357.83,1.98h-12.75Z"/>
      <path class="cls-1" d="M406.46,67.14l-1.68-65.15h-15.47s-44.86,65.14-44.86,65.14h14.3s8.93-13.39,8.93-13.39h24.12l-.18,13.4h14.84ZM391.7,42.51h-16.62l16.9-25.63-.28,25.63Z"/>
      <path class="cls-1" d="M484.46,23.69c1.16-4.07.99-8.12-.49-12.15-2.72-7.19-9.59-10.79-20.6-10.79-8.23,0-15.9,2.68-23.01,8.05-8.15,6.16-14.11,14.93-17.85,26.3-3.48,10.52-3.53,18.8-.15,24.84,3.41,6.02,9.83,9.02,19.25,9.02,7.61,0,14.58-2.22,20.92-6.67,6.34-4.45,11.27-10.22,14.79-17.33h-13.54c-2.03,3.36-4,5.88-5.94,7.56-3.57,3.12-7.75,4.68-12.54,4.68s-7.93-1.82-9.75-5.45c-1.84-3.65-1.53-9.11.89-16.43,2.4-7.3,5.69-12.95,9.88-16.94,4.2-3.99,8.79-5.99,13.76-5.99s8.1,1.41,9.64,4.25c.87,1.59,1.23,3.94,1.08,7.07h13.68Z"/>
      <path class="cls-1" d="M500.89,1.99l-21.5,65.15h13.59L514.48,1.99h-13.59Z"/>
      <path class="cls-1" d="M575.79,7.61c-3.29-5.07-9.61-7.61-18.97-7.61s-17.34,2.54-23.94,7.6c-8.61,5.98-14.88,14.94-18.82,26.88-3.88,11.71-3.53,20.66,1.04,26.88,3.29,5.07,9.61,7.6,18.97,7.6s17.34-2.53,23.94-7.6c8.66-6.21,14.93-15.17,18.82-26.88,3.94-11.92,3.59-20.88-1.04-26.86ZM563.15,34.48c-2.43,7.34-5.89,13-10.4,16.98s-9.47,5.97-14.89,5.97-9.09-1.99-10.99-5.97-1.64-9.64.78-16.98c2.43-7.33,5.9-12.99,10.44-16.97,4.54-3.98,9.52-5.97,14.94-5.97s9.05,2,10.91,5.99c1.86,3.99,1.59,9.64-.8,16.94Z"/>
      <path class="cls-1" d="M638.19,1.99l-15.03,45.49-11.04-45.49h-14.35l-21.5,65.15h12.75l15.26-46.27,11.47,46.28h13.68L650.93,1.99h-12.75Z"/>
      <path class="cls-1" d="M699.56,67.15l-1.68-65.15h-15.45l-44.87,65.15h14.3l8.95-13.4h24.12l-.19,13.4h14.84ZM684.8,42.54h-16.61l16.89-25.64-.28,25.64Z"/>
      <path class="cls-1" d="M725.4,55.44l17.65-53.43h-13.68l-21.5,65.15h46.1l3.85-11.72h-32.42Z"/>
      <path class="cls-1" d="M277.81,88.81l-10.47,31.73h3.02l10.47-31.73h-3.02Z"/>
      <path class="cls-1" d="M310.89,88.81l-9.16,27.72h-.09l-9.25-27.72h-3.4l-10.49,31.73h3.02l9.11-27.67h.09l9.22,27.67h3.5l10.47-31.73h-3.02Z"/>
      <path class="cls-1" d="M342.66,93.99c-.32-1.1-.87-2.04-1.67-2.8-.55-.53-1.18-.95-1.86-1.28-.69-.32-1.42-.56-2.19-.72-.78-.17-1.59-.27-2.43-.31-.83-.05-1.69-.08-2.58-.08h-10.9l-10.47,31.73h10.9c1.05,0,2.12-.05,3.18-.15,1.05-.1,2.12-.3,3.18-.56,1.07-.28,2.12-.68,3.14-1.17,1.04-.5,2.05-1.17,3.07-1.99.98-.8,1.87-1.67,2.7-2.62.82-.96,1.55-1.95,2.19-3,.63-1.04,1.19-2.1,1.67-3.2.49-1.08.91-2.16,1.27-3.21.32-1.05.62-2.21.89-3.47.27-1.24.4-2.48.39-3.7,0-1.22-.17-2.37-.47-3.48ZM339.77,101.13c-.24,1.19-.55,2.36-.92,3.5-.36,1.09-.81,2.22-1.35,3.39-.54,1.18-1.18,2.3-1.94,3.38-.77,1.07-1.64,2.07-2.63,2.98-.99.91-2.1,1.63-3.35,2.16-1.44.64-2.79,1.05-4.04,1.21-1.26.17-2.57.24-3.93.24h-7.21l8.82-26.62h7.21c1.33.01,2.62.08,3.85.23,1.25.14,2.26.46,3.05.96.91.59,1.58,1.33,2,2.23.42.89.67,1.87.72,2.95.05,1.07-.05,2.19-.28,3.39Z"/>
      <path class="cls-1" d="M374.74,88.82l-6.24,18.89c-.63,1.89-1.35,3.52-2.12,4.89-.78,1.39-1.71,2.54-2.76,3.47-1.05.92-2.25,1.62-3.58,2.07-1.33.46-2.86.68-4.57.68-3.29,0-5.37-.86-6.28-2.59-.9-1.73-.69-4.57.62-8.51l6.24-18.89h-3.02l-6.51,19.78c-1.36,4.06-1.39,7.2-.09,9.43,1.31,2.23,4.04,3.34,8.2,3.35,4.13,0,7.59-1.1,10.37-3.29,2.77-2.19,4.85-5.35,6.23-9.5l6.51-19.78h-3ZM370.6,80.22l-6.91,6.12h2.26l8.06-6.12h-3.41Z"/>
      <path class="cls-1" d="M403.25,93.8c-.08-1.16-.42-2.16-1.03-3.03-.6-.86-1.49-1.54-2.66-2.04-1.17-.5-2.66-.76-4.45-.76s-3.41.24-4.93.71c-1.51.47-2.85,1.1-4,1.9-1.16.8-2.13,1.71-2.94,2.73-.8,1.03-1.37,2.08-1.73,3.17-.51,1.55-.65,2.84-.44,3.85.22,1.01.68,1.85,1.37,2.49.69.65,1.57,1.17,2.61,1.54,1.05.39,2.13.72,3.26,1,1.12.28,2.19.56,3.26.86,1.05.3,1.96.68,2.72,1.17.76.47,1.28,1.1,1.59,1.87.31.76.26,1.76-.15,2.99-.27.89-.71,1.72-1.28,2.52-.58.8-1.3,1.49-2.14,2.09-.86.6-1.86,1.08-3,1.42-1.16.36-2.43.53-3.85.53-1.21,0-2.3-.13-3.27-.41-.96-.28-1.76-.73-2.36-1.35-.62-.62-1-1.41-1.18-2.4-.18-.99-.1-2.18.24-3.59h-2.93c-.55,1.73-.76,3.25-.62,4.52.14,1.28.59,2.35,1.33,3.22.73.86,1.75,1.51,3.03,1.94,1.27.42,2.73.64,4.39.64,3.7,0,6.83-.81,9.41-2.43,2.58-1.62,4.35-3.89,5.31-6.83.5-1.53.65-2.8.46-3.81-.19-1.01-.6-1.85-1.23-2.49-.64-.65-1.45-1.17-2.44-1.54-.99-.39-2.03-.72-3.12-1-1.09-.27-2.16-.54-3.22-.78-1.07-.26-2-.58-2.81-.98s-1.44-.9-1.89-1.51c-.44-.62-.58-1.44-.4-2.48.13-.82.45-1.64.95-2.46.51-.82,1.19-1.57,2.04-2.25.85-.68,1.86-1.22,3.04-1.66,1.19-.42,2.55-.63,4.08-.63,1.01,0,1.95.13,2.81.39.87.27,1.57.68,2.09,1.24.53.55.86,1.27,1.01,2.16.14.87.01,1.93-.39,3.13h2.88c.45-1.3.63-2.52.56-3.66Z"/>
      <path class="cls-1" d="M409.14,88.82l-.83,2.55h10.1l-9.65,29.16h3.02s9.64-29.16,9.64-29.16h10.1l.82-2.55h-23.19Z"/>
      <path class="cls-1" d="M456.49,90.78c-1.42-1.31-3.9-1.96-7.41-1.96h-12.49l-10.47,31.68,3,.05,4.79-14.41h9.47c.73,0,1.44.04,2.1.13s1.23.27,1.69.54c.45.26.8.64,1.03,1.17.24.51.31,1.19.21,2.04-.06.59-.24,1.37-.54,2.36-.3.99-.56,1.99-.83,3.02-.27,1.03-.49,2-.65,2.93-.17.92-.18,1.67-.04,2.23l3.32-.05.08-.26c-.15-.15-.27-.36-.32-.64-.06-.28-.05-.67,0-1.17.06-.5.18-1.14.39-1.94.19-.8.47-1.8.86-3,.24-.82.47-1.67.69-2.55.22-.87.32-1.72.31-2.5,0-.8-.17-1.5-.5-2.12-.32-.62-.91-1.09-1.76-1.41,2.1-.82,3.76-1.82,4.98-3,1.21-1.17,2.14-2.76,2.79-4.75.96-2.94.73-5.06-.69-6.37ZM454.12,97.28c-.37,1.12-.89,2.07-1.55,2.86s-1.44,1.45-2.31,1.96c-.87.51-1.84.89-2.88,1.12-1.05.24-2.13.36-3.25.36h-9.4l4.04-12.21h9.56c1,0,1.94.09,2.82.27.87.17,1.6.47,2.17.92.56.44.94,1.04,1.12,1.8.18.77.06,1.75-.33,2.91Z"/>
      <path class="cls-1" d="M467.23,88.82l-10.47,31.73h3l10.47-31.73h-3Z"/>
      <path class="cls-1" d="M491.49,88.82h-3.4l-23.01,31.73h3.11l7.05-9.96h14.53l.38,9.96h3.09l-1.75-31.73ZM477.08,108.03l11.77-16.66.72,16.66h-12.49Z"/>
      <path class="cls-1" d="M545.61,88.82l-19.52,27.98h-.08l-1.22-27.98h-4.59l-10.47,31.73h3l9.32-28.29h.09l1.18,28.29h2.82l19.78-28.29h.09l-9.33,28.29h3.02l10.47-31.73h-4.56Z"/>
      <path class="cls-1" d="M577.58,91.37l.83-2.55h-21.2l-10.49,31.73h21.65l.83-2.55h-18.64l4.17-12.6h16.42l.83-2.55h-16.43l3.82-11.46h18.19Z"/>
      <path class="cls-1" d="M605.32,90.54c-1.67-1.69-4.13-2.55-7.41-2.55-2.13,0-4.2.31-6.2.91-2,.6-3.89,1.57-5.65,2.9-1.77,1.33-3.38,3.07-4.81,5.19-1.45,2.1-2.67,4.68-3.67,7.7-.77,2.27-1.23,4.4-1.39,6.42-.17,2.02.06,3.77.67,5.3s1.63,2.75,3.07,3.65c1.45.89,3.39,1.33,5.84,1.33,2.13,0,4.08-.3,5.87-.9,1.78-.6,3.39-1.41,4.83-2.44,1.42-1.04,2.72-2.23,3.85-3.59,1.13-1.37,2.13-2.81,2.98-4.34h-3.13c-.72,1.26-1.53,2.41-2.45,3.48-.92,1.05-1.94,1.98-3.04,2.75-1.1.78-2.3,1.4-3.56,1.84-1.26.44-2.57.65-3.93.65-2.18,0-3.86-.41-5.04-1.23-1.17-.82-1.96-1.9-2.39-3.23-.41-1.33-.53-2.86-.33-4.56.21-1.71.6-3.44,1.19-5.21.59-1.87,1.4-3.66,2.39-5.35,1-1.68,2.16-3.17,3.47-4.47,1.32-1.3,2.8-2.32,4.45-3.08,1.66-.77,3.44-1.16,5.37-1.16,2.71,0,4.72.58,6.02,1.72,1.3,1.16,1.82,3.07,1.57,5.78h3.09c.56-3.29.01-5.79-1.64-7.5Z"/>
      <path class="cls-1" d="M629.24,88.83h-3.41l-23,31.72h3.11l7.05-9.96h14.52l.4,9.96h3.09l-1.75-31.72ZM614.83,108.03l11.77-16.65.72,16.65h-12.49ZM631.92,80.23h-2.96l-7.05,6.12h2.88l5.13-4.49,2.13,4.49h2.88l-3-6.12Z"/>
      <path class="cls-1" d="M667.59,88.83l-9.18,27.71h-.09l-9.24-27.71h-3.41l-10.47,31.72h3l9.13-27.66h.09l9.2,27.66h3.5l10.47-31.72h-3Z"/>
      <path class="cls-1" d="M678.78,88.83l-10.47,31.73h3.02l10.47-31.73h-3.02Z"/>
      <path class="cls-1" d="M711.09,90.55c-1.67-1.71-4.13-2.55-7.41-2.55-2.13,0-4.2.3-6.2.9-2,.6-3.89,1.57-5.65,2.91-1.77,1.33-3.38,3.05-4.81,5.17-1.44,2.12-2.67,4.68-3.67,7.71-.76,2.26-1.22,4.39-1.39,6.4-.17,2.02.06,3.79.67,5.31.6,1.53,1.63,2.73,3.07,3.63,1.45.9,3.4,1.35,5.84,1.35,2.13,0,4.08-.31,5.87-.91,1.78-.59,3.39-1.41,4.83-2.44,1.44-1.03,2.72-2.22,3.85-3.59,1.13-1.36,2.13-2.81,2.99-4.34h-3.14c-.71,1.26-1.53,2.43-2.45,3.48-.91,1.07-1.93,1.98-3.04,2.76-1.1.77-2.3,1.39-3.56,1.82-1.26.45-2.57.67-3.93.67-2.18,0-3.86-.41-5.03-1.23-1.18-.82-1.98-1.91-2.4-3.25-.41-1.33-.53-2.85-.32-4.56.19-1.71.59-3.44,1.18-5.2.6-1.89,1.4-3.67,2.39-5.35,1-1.69,2.16-3.18,3.47-4.48,1.32-1.28,2.81-2.31,4.45-3.08,1.66-.76,3.44-1.14,5.37-1.14,2.72,0,4.72.56,6.02,1.72,1.3,1.14,1.82,3.07,1.57,5.76h3.09c.56-3.29.01-5.78-1.64-7.48Z"/>
      <path class="cls-1" d="M735.02,88.83h-3.4l-23.01,31.73h3.11l7.05-9.96h14.53l.38,9.96h3.09l-1.75-31.73ZM720.6,108.05l11.77-16.66.72,16.66h-12.49Z"/>
    </g>
  </g>
</svg>